<mxfile host="65bd71144e">
    <diagram name="Page-1" id="x20RFKxtPtDjbqUovUor">
        <mxGraphModel dx="689" dy="3744" grid="1" gridSize="10" guides="1" tooltips="1" connect="1" arrows="1" fold="1" page="1" pageScale="1" pageWidth="900" pageHeight="1600" math="0" shadow="0">
            <root>
                <mxCell id="0"/>
                <mxCell id="1" parent="0"/>
                <mxCell id="50" style="edgeStyle=none;html=1;" edge="1" parent="1" source="YspYHQnijfxOia4Xg949-1" target="49">
                    <mxGeometry relative="1" as="geometry"/>
                </mxCell>
                <mxCell id="YspYHQnijfxOia4Xg949-1" value="Start" style="whiteSpace=wrap;html=1;rounded=1;arcSize=50;fillColor=#f0abfc;" parent="1" vertex="1">
                    <mxGeometry x="660" y="-2250" width="120" height="80" as="geometry"/>
                </mxCell>
                <mxCell id="YspYHQnijfxOia4Xg949-3" value="End" style="whiteSpace=wrap;html=1;rounded=1;arcSize=50;fillColor=#f0abfc;" parent="1" vertex="1">
                    <mxGeometry x="296.66" y="-410" width="120" height="80" as="geometry"/>
                </mxCell>
                <mxCell id="PHLAjSscMgB2TwzK4uWW-3" value="" style="edgeStyle=orthogonalEdgeStyle;rounded=0;orthogonalLoop=1;jettySize=auto;html=1;" parent="1" source="YspYHQnijfxOia4Xg949-12" target="PHLAjSscMgB2TwzK4uWW-1" edge="1">
                    <mxGeometry relative="1" as="geometry"/>
                </mxCell>
                <mxCell id="YspYHQnijfxOia4Xg949-12" value="Input tahun" style="shape=parallelogram;html=1;strokeWidth=2;perimeter=parallelogramPerimeter;whiteSpace=wrap;rounded=1;arcSize=12;size=0.23;fillColor=#7aa2f7;" parent="1" vertex="1">
                    <mxGeometry x="480" y="-1280" width="100" height="60" as="geometry"/>
                </mxCell>
                <mxCell id="PHLAjSscMgB2TwzK4uWW-5" value="Yes" style="edgeStyle=orthogonalEdgeStyle;rounded=0;orthogonalLoop=1;jettySize=auto;html=1;entryX=0.5;entryY=0;entryDx=0;entryDy=0;entryPerimeter=0;startArrow=none;" parent="1" source="4" target="PHLAjSscMgB2TwzK4uWW-6" edge="1">
                    <mxGeometry relative="1" as="geometry">
                        <mxPoint x="530" y="-1010" as="targetPoint"/>
                    </mxGeometry>
                </mxCell>
                <mxCell id="PHLAjSscMgB2TwzK4uWW-9" style="edgeStyle=orthogonalEdgeStyle;rounded=0;orthogonalLoop=1;jettySize=auto;html=1;entryX=0.5;entryY=1;entryDx=0;entryDy=0;" parent="1" source="PHLAjSscMgB2TwzK4uWW-1" target="8" edge="1">
                    <mxGeometry relative="1" as="geometry">
                        <Array as="points">
                            <mxPoint x="665" y="-1125"/>
                        </Array>
                    </mxGeometry>
                </mxCell>
                <mxCell id="PHLAjSscMgB2TwzK4uWW-10" value="No" style="edgeLabel;html=1;align=center;verticalAlign=middle;resizable=0;points=[];" parent="PHLAjSscMgB2TwzK4uWW-9" vertex="1" connectable="0">
                    <mxGeometry x="-0.7704" y="1" relative="1" as="geometry">
                        <mxPoint as="offset"/>
                    </mxGeometry>
                </mxCell>
                <mxCell id="PHLAjSscMgB2TwzK4uWW-1" value="&lt;span style=&quot;font-size: 10px;&quot;&gt;type(tahun) == int&lt;/span&gt;" style="rhombus;whiteSpace=wrap;html=1;fillColor=#bb9af7;" parent="1" vertex="1">
                    <mxGeometry x="475" y="-1180" width="110" height="110" as="geometry"/>
                </mxCell>
                <mxCell id="PHLAjSscMgB2TwzK4uWW-19" style="edgeStyle=orthogonalEdgeStyle;rounded=0;orthogonalLoop=1;jettySize=auto;html=1;" parent="1" target="PHLAjSscMgB2TwzK4uWW-18" edge="1">
                    <mxGeometry relative="1" as="geometry">
                        <mxPoint x="530" y="-801" as="sourcePoint"/>
                    </mxGeometry>
                </mxCell>
                <mxCell id="PHLAjSscMgB2TwzK4uWW-20" value="Yes" style="edgeLabel;html=1;align=center;verticalAlign=middle;resizable=0;points=[];" parent="PHLAjSscMgB2TwzK4uWW-19" vertex="1" connectable="0">
                    <mxGeometry x="-0.4128" y="-2" relative="1" as="geometry">
                        <mxPoint as="offset"/>
                    </mxGeometry>
                </mxCell>
                <mxCell id="PHLAjSscMgB2TwzK4uWW-6" value="&lt;font style=&quot;font-size: 10px;&quot;&gt;(tahun % 4 == 0 and tahun % 100 != 0) or tahun % 400 == 0&amp;nbsp;&lt;/font&gt;" style="strokeWidth=2;html=1;shape=mxgraph.flowchart.decision;whiteSpace=wrap;fillColor=#bb9af7;" parent="1" vertex="1">
                    <mxGeometry x="480" y="-900" width="100" height="100" as="geometry"/>
                </mxCell>
                <mxCell id="PHLAjSscMgB2TwzK4uWW-12" value="tahun bukan merupakan tahun kabisat" style="shape=parallelogram;html=1;strokeWidth=2;perimeter=parallelogramPerimeter;whiteSpace=wrap;rounded=1;arcSize=12;size=0.23;fillColor=#d19a66;" parent="1" vertex="1">
                    <mxGeometry x="624" y="-880" width="133.33" height="80" as="geometry"/>
                </mxCell>
                <mxCell id="PHLAjSscMgB2TwzK4uWW-13" style="edgeStyle=orthogonalEdgeStyle;rounded=0;orthogonalLoop=1;jettySize=auto;html=1;entryX=0.116;entryY=0.362;entryDx=0;entryDy=0;entryPerimeter=0;" parent="1" target="PHLAjSscMgB2TwzK4uWW-12" edge="1">
                    <mxGeometry relative="1" as="geometry">
                        <mxPoint x="580" y="-851.04" as="sourcePoint"/>
                    </mxGeometry>
                </mxCell>
                <mxCell id="PHLAjSscMgB2TwzK4uWW-16" value="No" style="edgeLabel;html=1;align=center;verticalAlign=middle;resizable=0;points=[];" parent="PHLAjSscMgB2TwzK4uWW-13" vertex="1" connectable="0">
                    <mxGeometry x="-0.361" y="-1" relative="1" as="geometry">
                        <mxPoint as="offset"/>
                    </mxGeometry>
                </mxCell>
                <mxCell id="PHLAjSscMgB2TwzK4uWW-21" style="edgeStyle=orthogonalEdgeStyle;rounded=0;orthogonalLoop=1;jettySize=auto;html=1;entryX=0.5;entryY=0;entryDx=0;entryDy=0;" parent="1" source="PHLAjSscMgB2TwzK4uWW-18" target="10" edge="1">
                    <mxGeometry relative="1" as="geometry">
                        <mxPoint x="357" y="-420" as="targetPoint"/>
                    </mxGeometry>
                </mxCell>
                <mxCell id="PHLAjSscMgB2TwzK4uWW-18" value="tahun merupakan tahun kabisat" style="shape=parallelogram;html=1;strokeWidth=2;perimeter=parallelogramPerimeter;whiteSpace=wrap;rounded=1;arcSize=12;size=0.23;fillColor=#d19a66;" parent="1" vertex="1">
                    <mxGeometry x="463" y="-751" width="133.33" height="80" as="geometry"/>
                </mxCell>
                <mxCell id="2" value="" style="edgeStyle=orthogonalEdgeStyle;rounded=0;orthogonalLoop=1;jettySize=auto;html=1;entryX=0.5;entryY=0;entryDx=0;entryDy=0;entryPerimeter=0;endArrow=none;" parent="1" source="PHLAjSscMgB2TwzK4uWW-1" target="4" edge="1">
                    <mxGeometry relative="1" as="geometry">
                        <mxPoint x="530" y="-1030" as="targetPoint"/>
                        <mxPoint x="530" y="-1070" as="sourcePoint"/>
                    </mxGeometry>
                </mxCell>
                <mxCell id="3" value="Yes" style="edgeLabel;html=1;align=center;verticalAlign=middle;resizable=0;points=[];" parent="2" vertex="1" connectable="0">
                    <mxGeometry x="-0.2116" y="-2" relative="1" as="geometry">
                        <mxPoint as="offset"/>
                    </mxGeometry>
                </mxCell>
                <mxCell id="6" value="No" style="edgeStyle=none;html=1;entryX=0;entryY=0.5;entryDx=0;entryDy=0;" parent="1" source="4" target="5" edge="1">
                    <mxGeometry relative="1" as="geometry"/>
                </mxCell>
                <mxCell id="4" value="tahun &amp;gt; 0" style="rhombus;whiteSpace=wrap;html=1;fillColor=#bb9af7;" parent="1" vertex="1">
                    <mxGeometry x="476" y="-1044.5" width="109" height="109" as="geometry"/>
                </mxCell>
                <mxCell id="7" style="edgeStyle=none;html=1;entryX=1;entryY=0.5;entryDx=0;entryDy=0;exitX=1;exitY=0.5;exitDx=0;exitDy=0;" parent="1" source="5" target="YspYHQnijfxOia4Xg949-12" edge="1">
                    <mxGeometry relative="1" as="geometry">
                        <Array as="points">
                            <mxPoint x="805" y="-990"/>
                            <mxPoint x="805" y="-1130"/>
                            <mxPoint x="805" y="-1250"/>
                            <mxPoint x="685" y="-1250"/>
                        </Array>
                    </mxGeometry>
                </mxCell>
                <mxCell id="5" value="angka tahun tidak boleh minus!" style="shape=parallelogram;perimeter=parallelogramPerimeter;whiteSpace=wrap;html=1;fixedSize=1;fillColor=#d19a66;" parent="1" vertex="1">
                    <mxGeometry x="624" y="-1020" width="120" height="60" as="geometry"/>
                </mxCell>
                <mxCell id="9" style="edgeStyle=none;html=1;entryX=1;entryY=0.5;entryDx=0;entryDy=0;" parent="1" source="8" target="YspYHQnijfxOia4Xg949-12" edge="1">
                    <mxGeometry relative="1" as="geometry">
                        <Array as="points">
                            <mxPoint x="665" y="-1250"/>
                        </Array>
                    </mxGeometry>
                </mxCell>
                <mxCell id="8" value="Inputan harus berupa bilangan bulat (tahun)!" style="shape=parallelogram;perimeter=parallelogramPerimeter;whiteSpace=wrap;html=1;fixedSize=1;fillColor=#d19a66;" parent="1" vertex="1">
                    <mxGeometry x="605" y="-1220" width="120" height="60" as="geometry"/>
                </mxCell>
                <mxCell id="13" style="edgeStyle=none;html=1;entryX=0.5;entryY=0;entryDx=0;entryDy=0;" parent="1" source="10" target="YspYHQnijfxOia4Xg949-3" edge="1">
                    <mxGeometry relative="1" as="geometry"/>
                </mxCell>
                <mxCell id="10" value="Program Selesai!" style="shape=parallelogram;html=1;strokeWidth=2;perimeter=parallelogramPerimeter;whiteSpace=wrap;rounded=1;arcSize=12;size=0.23;fillColor=#d19a66;" parent="1" vertex="1">
                    <mxGeometry x="290" y="-520" width="133.33" height="80" as="geometry"/>
                </mxCell>
                <mxCell id="66" style="edgeStyle=none;html=1;entryX=1;entryY=0.5;entryDx=0;entryDy=0;" edge="1" parent="1" source="14" target="30">
                    <mxGeometry relative="1" as="geometry">
                        <Array as="points">
                            <mxPoint x="870" y="-1435"/>
                            <mxPoint x="870" y="-1910"/>
                        </Array>
                    </mxGeometry>
                </mxCell>
                <mxCell id="14" value="&lt;font color=&quot;#000000&quot;&gt;listUser = {}&lt;/font&gt;" style="shape=cylinder3;whiteSpace=wrap;html=1;boundedLbl=1;backgroundOutline=1;size=15;fillColor=#ffff88;strokeColor=#36393d;" vertex="1" parent="1">
                    <mxGeometry x="671.25" y="-1500" width="97.5" height="130" as="geometry"/>
                </mxCell>
                <mxCell id="17" style="edgeStyle=none;html=1;" edge="1" parent="1" source="15" target="16">
                    <mxGeometry relative="1" as="geometry"/>
                </mxCell>
                <mxCell id="15" value="input nama" style="shape=parallelogram;perimeter=parallelogramPerimeter;whiteSpace=wrap;html=1;fixedSize=1;fillColor=#7AA2F7;" vertex="1" parent="1">
                    <mxGeometry x="660" y="-1700" width="120" height="60" as="geometry"/>
                </mxCell>
                <mxCell id="18" style="edgeStyle=none;html=1;entryX=0.5;entryY=0;entryDx=0;entryDy=0;entryPerimeter=0;" edge="1" parent="1" source="16" target="14">
                    <mxGeometry relative="1" as="geometry"/>
                </mxCell>
                <mxCell id="16" value="input password" style="shape=parallelogram;perimeter=parallelogramPerimeter;whiteSpace=wrap;html=1;fixedSize=1;fillColor=#7AA2F7;" vertex="1" parent="1">
                    <mxGeometry x="660" y="-1590" width="120" height="60" as="geometry"/>
                </mxCell>
                <mxCell id="21" style="edgeStyle=none;html=1;" edge="1" source="22" target="24" parent="1">
                    <mxGeometry relative="1" as="geometry"/>
                </mxCell>
                <mxCell id="22" value="input nama" style="shape=parallelogram;perimeter=parallelogramPerimeter;whiteSpace=wrap;html=1;fixedSize=1;fillColor=#7AA2F7;" vertex="1" parent="1">
                    <mxGeometry x="470" y="-1690" width="120" height="60" as="geometry"/>
                </mxCell>
                <mxCell id="27" style="edgeStyle=none;html=1;entryX=0.5;entryY=0;entryDx=0;entryDy=0;" edge="1" parent="1" source="24" target="26">
                    <mxGeometry relative="1" as="geometry"/>
                </mxCell>
                <mxCell id="24" value="input password" style="shape=parallelogram;perimeter=parallelogramPerimeter;whiteSpace=wrap;html=1;fixedSize=1;fillColor=#7AA2F7;" vertex="1" parent="1">
                    <mxGeometry x="470" y="-1580" width="120" height="60" as="geometry"/>
                </mxCell>
                <mxCell id="43" style="edgeStyle=none;html=1;entryX=0;entryY=0.5;entryDx=0;entryDy=0;entryPerimeter=0;exitX=1;exitY=0.5;exitDx=0;exitDy=0;" edge="1" parent="1" source="26" target="14">
                    <mxGeometry relative="1" as="geometry"/>
                </mxCell>
                <mxCell id="56" style="edgeStyle=none;html=1;" edge="1" parent="1" source="26" target="53">
                    <mxGeometry relative="1" as="geometry"/>
                </mxCell>
                <mxCell id="57" value="No" style="edgeLabel;html=1;align=center;verticalAlign=middle;resizable=0;points=[];" vertex="1" connectable="0" parent="56">
                    <mxGeometry x="-0.4166" y="-3" relative="1" as="geometry">
                        <mxPoint x="-4" y="3" as="offset"/>
                    </mxGeometry>
                </mxCell>
                <mxCell id="65" value="Yes" style="edgeStyle=none;html=1;entryX=0.5;entryY=0;entryDx=0;entryDy=0;" edge="1" parent="1" source="26" target="YspYHQnijfxOia4Xg949-12">
                    <mxGeometry relative="1" as="geometry">
                        <mxPoint x="360" y="-1160" as="targetPoint"/>
                    </mxGeometry>
                </mxCell>
                <mxCell id="26" value="if nama &amp;amp; password in listUser" style="rhombus;whiteSpace=wrap;html=1;fillColor=#BB9AF7;" vertex="1" parent="1">
                    <mxGeometry x="475" y="-1470" width="110" height="110" as="geometry"/>
                </mxCell>
                <mxCell id="31" style="edgeStyle=none;html=1;entryX=0.5;entryY=0;entryDx=0;entryDy=0;" edge="1" parent="1" source="29" target="30">
                    <mxGeometry relative="1" as="geometry"/>
                </mxCell>
                <mxCell id="29" value="&lt;div style=&quot;&quot;&gt;&lt;span style=&quot;background-color: initial;&quot;&gt;output&amp;nbsp;&lt;/span&gt;&lt;/div&gt;&lt;div style=&quot;text-align: left;&quot;&gt;&lt;span style=&quot;background-color: initial;&quot;&gt;[1] Register&lt;/span&gt;&lt;/div&gt;&lt;div style=&quot;text-align: left;&quot;&gt;&lt;span style=&quot;background-color: initial;&quot;&gt;[2] Login&lt;/span&gt;&lt;/div&gt;&lt;div style=&quot;text-align: left;&quot;&gt;&lt;span style=&quot;background-color: initial;&quot;&gt;[3] Keluar&lt;/span&gt;&lt;/div&gt;" style="shape=parallelogram;perimeter=parallelogramPerimeter;whiteSpace=wrap;html=1;fixedSize=1;align=center;fillColor=#D19A66;" vertex="1" parent="1">
                    <mxGeometry x="660" y="-2030" width="120" height="60" as="geometry"/>
                </mxCell>
                <mxCell id="33" style="edgeStyle=none;html=1;entryX=0.5;entryY=0;entryDx=0;entryDy=0;" edge="1" parent="1" source="30" target="32">
                    <mxGeometry relative="1" as="geometry"/>
                </mxCell>
                <mxCell id="30" value="input choice" style="shape=parallelogram;perimeter=parallelogramPerimeter;whiteSpace=wrap;html=1;fixedSize=1;fillColor=#7AA2F7;" vertex="1" parent="1">
                    <mxGeometry x="660" y="-1940" width="120" height="60" as="geometry"/>
                </mxCell>
                <mxCell id="34" style="edgeStyle=none;html=1;" edge="1" parent="1" source="32" target="15">
                    <mxGeometry relative="1" as="geometry"/>
                </mxCell>
                <mxCell id="35" value="Yes" style="edgeLabel;html=1;align=center;verticalAlign=middle;resizable=0;points=[];" vertex="1" connectable="0" parent="34">
                    <mxGeometry x="-0.3698" y="-1" relative="1" as="geometry">
                        <mxPoint as="offset"/>
                    </mxGeometry>
                </mxCell>
                <mxCell id="36" style="edgeStyle=none;html=1;entryX=1;entryY=0.5;entryDx=0;entryDy=0;" edge="1" parent="1" source="32" target="38">
                    <mxGeometry relative="1" as="geometry">
                        <mxPoint x="610" y="-1780" as="targetPoint"/>
                    </mxGeometry>
                </mxCell>
                <mxCell id="37" value="No" style="edgeLabel;html=1;align=center;verticalAlign=middle;resizable=0;points=[];" vertex="1" connectable="0" parent="36">
                    <mxGeometry x="-0.311" y="2" relative="1" as="geometry">
                        <mxPoint x="-6" y="-2" as="offset"/>
                    </mxGeometry>
                </mxCell>
                <mxCell id="32" value="if choice == '1'" style="rhombus;whiteSpace=wrap;html=1;fillColor=#BB9AF7;" vertex="1" parent="1">
                    <mxGeometry x="680" y="-1820" width="80" height="80" as="geometry"/>
                </mxCell>
                <mxCell id="39" value="Yes" style="edgeStyle=none;html=1;" edge="1" parent="1" source="38">
                    <mxGeometry relative="1" as="geometry">
                        <mxPoint x="530" y="-1700" as="targetPoint"/>
                    </mxGeometry>
                </mxCell>
                <mxCell id="40" style="edgeStyle=none;html=1;entryX=0;entryY=0.5;entryDx=0;entryDy=0;" edge="1" parent="1" source="38" target="10">
                    <mxGeometry relative="1" as="geometry">
                        <mxPoint x="220" y="-2080" as="targetPoint"/>
                        <Array as="points">
                            <mxPoint x="160" y="-1780"/>
                            <mxPoint x="160" y="-480"/>
                        </Array>
                    </mxGeometry>
                </mxCell>
                <mxCell id="47" value="No" style="edgeLabel;html=1;align=center;verticalAlign=middle;resizable=0;points=[];" vertex="1" connectable="0" parent="40">
                    <mxGeometry x="-0.2123" y="2" relative="1" as="geometry">
                        <mxPoint y="-1" as="offset"/>
                    </mxGeometry>
                </mxCell>
                <mxCell id="38" value="if choise == '2'" style="rhombus;whiteSpace=wrap;html=1;fillColor=#BB9AF7;" vertex="1" parent="1">
                    <mxGeometry x="490" y="-1820" width="80" height="80" as="geometry"/>
                </mxCell>
                <mxCell id="51" style="edgeStyle=none;html=1;" edge="1" parent="1" source="49" target="29">
                    <mxGeometry relative="1" as="geometry"/>
                </mxCell>
                <mxCell id="49" value="counter = 3" style="rounded=1;whiteSpace=wrap;html=1;fillColor=#FF66B3;" vertex="1" parent="1">
                    <mxGeometry x="660" y="-2130" width="120" height="60" as="geometry"/>
                </mxCell>
                <mxCell id="60" style="edgeStyle=none;html=1;entryX=0;entryY=0.5;entryDx=0;entryDy=0;" edge="1" parent="1" source="52" target="29">
                    <mxGeometry relative="1" as="geometry">
                        <Array as="points">
                            <mxPoint x="257" y="-1300"/>
                            <mxPoint x="160" y="-1300"/>
                            <mxPoint x="160" y="-2000"/>
                        </Array>
                    </mxGeometry>
                </mxCell>
                <mxCell id="61" value="Yes" style="edgeLabel;html=1;align=center;verticalAlign=middle;resizable=0;points=[];" vertex="1" connectable="0" parent="60">
                    <mxGeometry x="-0.9711" y="2" relative="1" as="geometry">
                        <mxPoint x="-3" y="11" as="offset"/>
                    </mxGeometry>
                </mxCell>
                <mxCell id="63" style="edgeStyle=none;html=1;entryX=0;entryY=0.5;entryDx=0;entryDy=0;" edge="1" parent="1" source="52" target="67">
                    <mxGeometry relative="1" as="geometry">
                        <Array as="points">
                            <mxPoint x="180" y="-1415"/>
                            <mxPoint x="180" y="-1660"/>
                        </Array>
                    </mxGeometry>
                </mxCell>
                <mxCell id="64" value="No" style="edgeLabel;html=1;align=center;verticalAlign=middle;resizable=0;points=[];" vertex="1" connectable="0" parent="63">
                    <mxGeometry x="-0.8876" y="3" relative="1" as="geometry">
                        <mxPoint x="14" y="-3" as="offset"/>
                    </mxGeometry>
                </mxCell>
                <mxCell id="52" value="if counter == 3" style="rhombus;whiteSpace=wrap;html=1;fillColor=#BB9AF7;" vertex="1" parent="1">
                    <mxGeometry x="216.66" y="-1455" width="80" height="80" as="geometry"/>
                </mxCell>
                <mxCell id="59" style="edgeStyle=none;html=1;" edge="1" parent="1" source="53" target="52">
                    <mxGeometry relative="1" as="geometry"/>
                </mxCell>
                <mxCell id="53" value="counter = counter + 1" style="rounded=1;whiteSpace=wrap;html=1;fillColor=#FF66B3;" vertex="1" parent="1">
                    <mxGeometry x="319.99999999999994" y="-1445" width="120" height="60" as="geometry"/>
                </mxCell>
                <mxCell id="70" style="edgeStyle=none;html=1;entryX=0;entryY=0.5;entryDx=0;entryDy=0;" edge="1" parent="1" source="67" target="22">
                    <mxGeometry relative="1" as="geometry"/>
                </mxCell>
                <mxCell id="67" value="output&lt;br&gt;Data tidak ditemukan!&lt;br&gt;Silahkan registrasi terlebih dahulu" style="shape=parallelogram;perimeter=parallelogramPerimeter;whiteSpace=wrap;html=1;fixedSize=1;fillColor=#D19A66;" vertex="1" parent="1">
                    <mxGeometry x="270" y="-1690" width="120" height="60" as="geometry"/>
                </mxCell>
                <mxCell id="71" value="output&lt;br&gt;Kesempatan login sudah habis!" style="shape=parallelogram;perimeter=parallelogramPerimeter;whiteSpace=wrap;html=1;fixedSize=1;fillColor=#D19A66;" vertex="1" parent="1">
                    <mxGeometry x="196.66" y="-1330" width="120" height="60" as="geometry"/>
                </mxCell>
            </root>
        </mxGraphModel>
    </diagram>
</mxfile>